<mxfile host="Electron" modified="2024-05-28T11:22:01.270Z" agent="Mozilla/5.0 (Macintosh; Intel Mac OS X 10_15_7) AppleWebKit/537.36 (KHTML, like Gecko) draw.io/24.1.0 Chrome/120.0.6099.109 Electron/28.1.0 Safari/537.36" etag="l89FUtH0wy-PewnZU169" version="24.1.0" type="device">
  <diagram name="Page-1" id="IZaHPAhRCIPd7uOn3GH0">
    <mxGraphModel dx="954" dy="593" grid="1" gridSize="10" guides="1" tooltips="1" connect="1" arrows="1" fold="1" page="1" pageScale="1" pageWidth="850" pageHeight="1100" math="1" shadow="0">
      <root>
        <mxCell id="0" />
        <mxCell id="1" parent="0" />
        <mxCell id="XUWVnjk8dgq5yqdQiGkZ-9" value="" style="rounded=0;whiteSpace=wrap;html=1;gradientColor=none;fillColor=#FFFFFF;" vertex="1" parent="1">
          <mxGeometry x="180" y="120" width="480" height="300" as="geometry" />
        </mxCell>
        <mxCell id="XUWVnjk8dgq5yqdQiGkZ-7" style="edgeStyle=orthogonalEdgeStyle;rounded=0;orthogonalLoop=1;jettySize=auto;html=1;exitX=0;exitY=0.5;exitDx=0;exitDy=0;entryX=0.5;entryY=0;entryDx=0;entryDy=0;strokeColor=#000000;" edge="1" parent="1" source="XUWVnjk8dgq5yqdQiGkZ-1" target="XUWVnjk8dgq5yqdQiGkZ-2">
          <mxGeometry relative="1" as="geometry" />
        </mxCell>
        <mxCell id="XUWVnjk8dgq5yqdQiGkZ-1" value="Hypothesize on Useful Information&lt;span style=&quot;color: rgb(0, 0, 0); font-size: medium; text-align: start;&quot;&gt;&lt;/span&gt;" style="rounded=0;whiteSpace=wrap;html=1;fillColor=#4D4D4D;strokeColor=#4D4D4D;" vertex="1" parent="1">
          <mxGeometry x="360" y="140" width="120" height="60" as="geometry" />
        </mxCell>
        <mxCell id="XUWVnjk8dgq5yqdQiGkZ-8" style="edgeStyle=orthogonalEdgeStyle;rounded=0;orthogonalLoop=1;jettySize=auto;html=1;exitX=0.5;exitY=1;exitDx=0;exitDy=0;entryX=0;entryY=0.5;entryDx=0;entryDy=0;strokeColor=#000000;" edge="1" parent="1" source="XUWVnjk8dgq5yqdQiGkZ-2" target="XUWVnjk8dgq5yqdQiGkZ-3">
          <mxGeometry relative="1" as="geometry" />
        </mxCell>
        <mxCell id="XUWVnjk8dgq5yqdQiGkZ-2" value="Collect Data&lt;span style=&quot;color: rgb(0, 0, 0); font-size: medium; text-align: start;&quot;&gt;&lt;/span&gt;" style="rounded=0;whiteSpace=wrap;html=1;fillColor=#4D4D4D;strokeColor=#4D4D4D;" vertex="1" parent="1">
          <mxGeometry x="200" y="240" width="120" height="60" as="geometry" />
        </mxCell>
        <mxCell id="XUWVnjk8dgq5yqdQiGkZ-5" style="edgeStyle=orthogonalEdgeStyle;rounded=0;orthogonalLoop=1;jettySize=auto;html=1;exitX=1;exitY=0.5;exitDx=0;exitDy=0;entryX=0.5;entryY=1;entryDx=0;entryDy=0;strokeColor=#000000;" edge="1" parent="1" source="XUWVnjk8dgq5yqdQiGkZ-3" target="XUWVnjk8dgq5yqdQiGkZ-4">
          <mxGeometry relative="1" as="geometry" />
        </mxCell>
        <mxCell id="XUWVnjk8dgq5yqdQiGkZ-3" value="Find a Model with Maximal Likelihood&lt;span style=&quot;color: rgb(0, 0, 0); font-size: medium; text-align: start;&quot;&gt;&lt;/span&gt;" style="rounded=0;whiteSpace=wrap;html=1;fillColor=#4D4D4D;strokeColor=#4D4D4D;" vertex="1" parent="1">
          <mxGeometry x="360" y="340" width="120" height="60" as="geometry" />
        </mxCell>
        <mxCell id="XUWVnjk8dgq5yqdQiGkZ-6" style="edgeStyle=orthogonalEdgeStyle;rounded=0;orthogonalLoop=1;jettySize=auto;html=1;exitX=0.5;exitY=0;exitDx=0;exitDy=0;entryX=1;entryY=0.5;entryDx=0;entryDy=0;strokeColor=#000000;" edge="1" parent="1" source="XUWVnjk8dgq5yqdQiGkZ-4" target="XUWVnjk8dgq5yqdQiGkZ-1">
          <mxGeometry relative="1" as="geometry" />
        </mxCell>
        <mxCell id="XUWVnjk8dgq5yqdQiGkZ-4" value="Evaluate the Model&lt;span style=&quot;color: rgb(0, 0, 0); font-size: medium; text-align: start;&quot;&gt;&lt;/span&gt;" style="rounded=0;whiteSpace=wrap;html=1;fillColor=#4D4D4D;strokeColor=#4D4D4D;" vertex="1" parent="1">
          <mxGeometry x="520" y="240" width="120" height="60" as="geometry" />
        </mxCell>
        <mxCell id="XUWVnjk8dgq5yqdQiGkZ-10" value="1" style="ellipse;whiteSpace=wrap;html=1;aspect=fixed;strokeColor=#000000;" vertex="1" parent="1">
          <mxGeometry x="350" y="190" width="20" height="20" as="geometry" />
        </mxCell>
        <mxCell id="XUWVnjk8dgq5yqdQiGkZ-11" value="2" style="ellipse;whiteSpace=wrap;html=1;aspect=fixed;strokeColor=#000000;" vertex="1" parent="1">
          <mxGeometry x="190" y="290" width="20" height="20" as="geometry" />
        </mxCell>
        <mxCell id="XUWVnjk8dgq5yqdQiGkZ-12" value="3" style="ellipse;whiteSpace=wrap;html=1;aspect=fixed;strokeColor=#000000;" vertex="1" parent="1">
          <mxGeometry x="350" y="390" width="20" height="20" as="geometry" />
        </mxCell>
        <mxCell id="XUWVnjk8dgq5yqdQiGkZ-13" value="4" style="ellipse;whiteSpace=wrap;html=1;aspect=fixed;strokeColor=#000000;" vertex="1" parent="1">
          <mxGeometry x="510" y="290" width="20" height="20" as="geometry" />
        </mxCell>
      </root>
    </mxGraphModel>
  </diagram>
</mxfile>
